<?xml version="1.0" standalone="no"?>
<!DOCTYPE svg PUBLIC "-//W3C//DTD SVG 20010904//EN"
 "http://www.w3.org/TR/2001/REC-SVG-20010904/DTD/svg10.dtd">
<svg version="1.0" xmlns="http://www.w3.org/2000/svg"
 width="200.000000pt" height="156.000000pt" viewBox="0 0 200.000000 156.000000"
 preserveAspectRatio="xMidYMid meet">

<g transform="translate(0.000000,156.000000) scale(0.100000,-0.100000)"
fill="#000000" stroke="none">
<path d="M1015 1390 c-11 -5 -31 -9 -43 -9 -13 -1 -37 -10 -52 -21 -20 -14
-37 -18 -59 -14 -28 6 -36 1 -83 -51 -29 -31 -53 -62 -53 -68 -1 -7 -6 -22
-13 -34 -7 -12 -12 -30 -12 -39 0 -10 -8 -26 -17 -36 -13 -14 -14 -21 -5 -30
23 -23 13 -84 -28 -164 -22 -43 -40 -86 -40 -95 0 -26 12 -52 19 -41 3 5 18
-3 32 -19 15 -16 23 -29 18 -29 -5 0 -9 -8 -9 -19 0 -10 -11 -26 -25 -35 -22
-15 -25 -22 -19 -51 5 -28 3 -35 -10 -35 -25 0 -31 -28 -11 -50 15 -17 16 -22
4 -36 -11 -14 -10 -19 10 -36 l24 -19 -21 -29 c-12 -16 -22 -33 -22 -38 0 -20
50 -53 91 -61 24 -5 38 -9 31 -10 -7 -1 -12 -13 -12 -28 2 -42 -7 -113 -14
-120 -13 -13 -5 -22 32 -34 40 -14 420 -20 502 -7 74 11 101 28 66 41 -8 3
-17 29 -21 65 -7 60 -16 76 -75 122 l-25 20 44 -15 c51 -17 90 -19 111 -4 12
8 8 9 -15 8 -59 -4 -82 1 -107 25 -19 17 -24 30 -21 48 5 24 7 25 30 13 14 -8
32 -11 39 -8 8 3 14 0 14 -5 0 -6 12 -12 28 -14 19 -2 27 -8 26 -20 -1 -12 5
-18 19 -18 11 0 17 -3 14 -7 -9 -9 132 -83 157 -83 11 0 41 -14 68 -31 45 -29
78 -33 78 -10 0 6 -31 26 -69 46 -55 29 -70 42 -74 64 -5 23 -21 37 -81 70
-69 38 -75 43 -81 80 -5 31 -13 42 -36 51 -16 7 -29 16 -29 21 0 5 -4 9 -9 9
-20 0 -80 46 -81 61 0 16 -59 49 -87 49 -29 0 -7 10 33 15 21 3 49 13 63 22
23 14 25 14 37 -2 12 -17 15 -17 39 -1 14 9 25 21 25 26 0 6 7 10 16 10 14 0
16 7 10 48 -4 26 -7 58 -6 72 1 14 3 96 4 184 l2 159 -41 42 c-25 28 -53 46
-75 50 -19 4 -44 14 -55 21 -11 8 -29 14 -41 14 -12 0 -27 7 -34 15 -14 16
-44 18 -75 5z m75 -25 c6 -8 9 -23 5 -34 -5 -16 -17 -20 -68 -23 -70 -5 -73
-3 -82 34 -6 25 -4 27 32 31 80 8 101 7 113 -8z m-146 -67 c-3 -5 -13 -8 -22
-8 -10 0 -28 -7 -40 -16 -27 -19 -27 -19 -35 24 -6 31 -5 32 28 32 18 0 37 5
41 11 4 8 11 3 20 -12 7 -13 10 -27 8 -31z m210 43 c3 -5 22 -12 41 -15 19 -4
35 -12 35 -18 0 -5 7 -8 15 -4 9 3 19 -3 26 -17 7 -12 18 -26 25 -30 18 -10
18 -41 0 -56 -11 -10 -19 -5 -37 21 -13 18 -23 40 -21 48 2 13 1 13 -7 1 -15
-23 -121 26 -121 57 0 15 6 22 19 22 11 0 22 -4 25 -9z m-316 -60 c9 -25 7
-32 -14 -52 -13 -12 -26 -31 -30 -41 -6 -19 -7 -19 -30 3 -31 29 -30 39 9 82
39 45 52 46 65 8z m262 -17 c0 -4 -8 -13 -17 -19 -15 -11 -11 -12 26 -5 32 6
48 4 60 -6 76 -66 93 -77 100 -65 6 9 11 8 22 -5 11 -13 11 -18 2 -21 -10 -4
-10 -10 -2 -24 5 -11 14 -17 19 -14 6 3 7 0 4 -8 -2 -7 0 -34 5 -58 6 -25 7
-58 2 -75 l-8 -29 -18 35 -18 35 -10 -28 c-8 -26 -10 -27 -24 -10 -13 17 -14
17 -9 1 3 -11 0 -18 -8 -18 -25 0 -111 42 -140 69 l-28 26 7 -25 c4 -14 13
-38 21 -55 13 -30 13 -30 8 -2 -4 15 -2 27 2 27 24 -1 42 -31 54 -88 13 -63
30 -95 22 -42 -4 25 -1 28 17 23 17 -4 21 -1 21 21 0 14 5 26 10 26 7 0 10
-25 8 -67 -3 -67 -3 -68 -39 -86 -46 -22 -194 -25 -260 -4 l-46 14 5 -26 c5
-23 3 -25 -11 -12 -10 7 -17 10 -17 5 0 -5 -23 -8 -52 -8 -65 2 -84 23 -67 73
6 18 9 34 6 37 -3 3 -14 -17 -24 -45 -10 -28 -21 -51 -25 -51 -11 0 -48 51
-48 67 0 8 -4 11 -10 8 -19 -12 -10 18 28 87 l37 70 3 -54 c3 -59 17 -83 24
-44 3 14 1 23 -3 20 -5 -3 -9 9 -9 27 l0 33 21 -22 c11 -13 23 -39 25 -60 7
-48 25 -122 31 -122 2 0 11 6 18 14 12 12 12 16 1 25 -11 9 -15 9 -19 -1 -3
-7 -6 1 -6 19 -1 17 -4 39 -8 49 -4 12 -3 15 5 10 7 -4 3 8 -8 28 -15 24 -18
36 -9 41 6 4 20 26 30 49 11 22 28 52 38 66 11 14 22 36 25 50 5 23 4 23 -6
-2 -7 -16 -15 -28 -20 -28 -15 0 -8 25 17 63 27 39 43 50 26 18 -8 -15 -7 -20
5 -25 21 -8 48 8 75 45 12 17 31 34 43 39 21 9 21 9 0 9 -12 1 -31 -14 -50
-38 -16 -22 -37 -39 -46 -38 -9 1 -14 5 -12 9 3 5 10 6 15 3 12 -8 12 8 -1 21
-13 13 55 53 99 58 18 2 35 6 38 10 8 8 53 8 53 0z m110 -30 c0 -2 -7 -4 -15
-4 -8 0 -15 4 -15 10 0 5 7 7 15 4 8 -4 15 -8 15 -10z m46 -51 c-7 -7 -26 7
-26 19 0 6 6 6 15 -2 9 -7 13 -15 11 -17z m-498 -9 c19 -16 19 -64 1 -64 -5 0
-9 -11 -9 -25 0 -17 -5 -25 -18 -25 -20 0 -46 36 -33 45 5 3 12 23 16 45 7 44
15 48 43 24z m563 3 c-1 -12 -15 -9 -19 4 -3 6 1 10 8 8 6 -3 11 -8 11 -12z
m-536 -106 c3 -5 1 -12 -5 -16 -5 -3 -10 1 -10 9 0 18 6 21 15 7z m-74 -54
c-8 -8 -11 -7 -11 4 0 20 13 34 18 19 3 -7 -1 -17 -7 -23z m61 -12 c3 -14 1
-28 -5 -32 -6 -3 -7 -1 -3 5 4 7 2 12 -3 12 -6 0 -11 9 -11 20 0 29 17 25 22
-5z m519 -102 c0 -38 3 -62 6 -55 8 20 23 14 23 -9 0 -15 -4 -19 -16 -15 -13
5 -14 1 -9 -24 5 -23 3 -32 -10 -36 -29 -11 -40 14 -41 93 0 56 4 82 15 94 26
29 31 22 32 -48z m-367 -149 c4 -9 4 -19 2 -21 -8 -8 -26 8 -26 23 0 19 16 18
24 -2z m266 -4 c-19 -12 -30 -12 -30 -1 0 10 31 20 40 14 2 -2 -2 -8 -10 -13z
m-422 -64 c-2 -23 -9 -32 -26 -34 -18 -3 -21 -8 -16 -27 4 -18 1 -25 -16 -30
-17 -5 -19 -10 -9 -21 9 -11 9 -17 -1 -29 -7 -9 -9 -26 -5 -45 5 -25 4 -30
-12 -30 -10 0 -29 7 -42 16 -21 15 -22 18 -6 26 15 9 15 12 -5 33 -25 26 -20
45 12 45 15 0 18 4 13 18 -19 43 -18 62 3 62 14 0 21 9 26 30 4 21 11 30 26
30 11 0 20 5 20 12 0 6 9 3 20 -7 14 -13 20 -29 18 -49z m42 44 c0 -5 -7 -10
-15 -10 -8 0 -15 5 -15 10 0 6 7 10 15 10 8 0 15 -4 15 -10z m176 -15 c8 -34
2 -38 -30 -24 -25 12 -25 13 -10 31 23 24 32 23 40 -7z m51 -1 c5 -15 7 -15
15 1 9 15 11 15 24 -2 19 -26 17 -30 -13 -30 -15 0 -29 -6 -31 -12 -7 -22 -20
-10 -24 24 -4 37 17 51 29 19z m-207 -11 c0 -5 -11 -28 -25 -51 -14 -24 -23
-47 -21 -51 3 -3 -9 -14 -25 -23 -16 -9 -31 -13 -34 -8 -3 5 -1 11 5 15 5 3
10 14 10 25 0 11 10 20 25 24 18 5 25 13 25 29 0 23 17 47 32 47 4 0 8 -3 8
-7z m110 -28 c9 -10 10 -19 3 -26 -12 -12 -70 0 -77 17 -3 8 0 11 8 8 8 -3 17
-1 21 5 9 16 31 13 45 -4z m-81 -59 c10 -12 8 -17 -8 -25 -21 -12 -33 2 -23
27 6 16 17 15 31 -2z m41 3 c0 -4 9 -5 19 -2 13 3 29 -4 46 -21 15 -15 37 -26
53 -26 17 0 23 -3 14 -8 -20 -13 30 -55 54 -45 18 6 18 6 2 -10 -9 -9 -23 -15
-31 -12 -7 3 -20 -1 -27 -10 -16 -20 -59 -19 -82 2 -22 20 -23 36 -3 53 8 7
15 17 15 23 0 6 -6 2 -14 -8 -12 -16 -16 -17 -30 -6 -9 7 -16 23 -16 35 -1 19
-2 19 -11 4 -5 -10 -17 -18 -26 -18 -15 0 -14 2 2 14 10 7 16 20 13 28 -4 9 0
15 8 15 8 0 14 -4 14 -8z m346 -42 c33 -18 60 -41 62 -51 3 -14 -10 -9 -59 23
-35 22 -65 45 -67 50 -5 16 0 14 64 -22z m-453 -40 c-15 -16 -23 -27 -16 -23
7 4 18 -2 25 -14 7 -11 21 -20 30 -20 10 0 22 -9 27 -19 13 -24 56 -39 137
-47 36 -4 62 -9 60 -12 -10 -9 -89 -12 -100 -3 -6 5 -28 11 -49 15 -21 4 -54
18 -74 32 -20 13 -39 21 -42 16 -3 -5 -15 -14 -27 -20 -18 -10 -23 -6 -42 33
l-21 44 28 20 c35 25 73 40 84 34 5 -3 -4 -19 -20 -36z m106 4 c11 -20 5 -31
-15 -31 -6 0 -14 11 -16 25 -6 30 16 34 31 6z m-19 -75 c0 -6 -7 -2 -15 8 -8
11 -15 25 -15 30 0 6 7 2 15 -8 8 -11 15 -25 15 -30z m67 12 c20 -18 34 -22
80 -20 50 2 54 1 43 -13 -23 -28 -120 -4 -168 42 -11 11 -10 13 4 13 10 0 28
-10 41 -22z m126 -5 c-7 -2 -19 -2 -25 0 -7 3 -2 5 12 5 14 0 19 -2 13 -5z
m-347 -51 c3 -11 12 -9 40 7 37 22 64 20 45 -3 -6 -7 -8 -15 -5 -19 9 -9 -15
-47 -30 -47 -24 0 -66 51 -65 79 1 24 2 22 15 -17z m-43 21 c-7 -2 -19 -2 -25
0 -7 3 -2 5 12 5 14 0 19 -2 13 -5z m-22 -35 c0 -10 2 -10 6 0 6 16 33 15 33
-2 0 -7 7 -19 15 -26 22 -18 0 -30 -40 -23 -38 7 -60 27 -52 47 7 19 37 21 38
4z m209 -8 c38 -21 36 -26 -5 -10 -15 6 -24 6 -20 1 3 -5 19 -12 35 -16 38 -8
38 -24 2 -58 -24 -23 -33 -26 -53 -18 -14 5 -31 16 -38 25 -11 13 -9 20 13 47
14 17 24 35 20 40 -8 14 7 10 46 -11z m340 -78 c0 -11 -30 -37 -52 -45 -11 -4
-29 4 -48 19 -35 30 -38 44 -10 44 11 0 23 7 25 15 3 8 7 22 10 30 4 12 13 8
40 -19 19 -20 35 -39 35 -44z m-199 55 c28 4 39 2 39 -7 0 -7 11 -28 25 -46
14 -18 25 -38 25 -44 0 -18 32 -60 46 -60 7 0 15 -3 17 -7 3 -5 -73 -8 -169
-8 -96 0 -174 3 -174 6 0 4 11 14 23 22 13 8 43 48 66 87 29 48 46 69 53 62 5
-5 27 -7 49 -5z"/>
<path d="M1030 1240 c0 -5 5 -10 11 -10 5 0 7 5 4 10 -3 6 -8 10 -11 10 -2 0
-4 -4 -4 -10z"/>
<path d="M879 1080 c-13 -10 -20 -19 -16 -20 5 0 15 7 24 15 8 8 19 13 24 10
5 -4 9 -1 9 4 0 16 -15 13 -41 -9z"/>
<path d="M972 1070 c-10 -17 -10 -20 3 -20 8 0 31 -17 51 -37 20 -21 30 -29
23 -18 -8 11 -16 22 -19 25 -3 3 -15 19 -26 37 -19 31 -20 31 -32 13z"/>
<path d="M855 1037 c-11 -7 -22 -13 -24 -14 -2 -2 1 -9 7 -16 7 -8 9 -17 5
-21 -4 -4 1 -4 11 0 13 5 14 9 6 14 -7 4 -9 13 -6 19 4 6 11 9 16 6 4 -3 10 2
14 10 6 18 -2 18 -29 2z"/>
<path d="M900 997 c-8 -7 -20 -21 -27 -32 -6 -11 -16 -19 -22 -17 -6 1 -11 -5
-11 -13 0 -8 3 -15 8 -15 4 0 7 -10 7 -22 1 -13 5 -34 9 -47 6 -18 5 -22 -5
-15 -12 6 -12 5 0 -9 21 -26 31 -20 20 12 -15 41 -8 85 14 89 13 3 17 -4 17
-30 0 -19 6 -43 14 -53 13 -18 14 -18 9 9 -5 27 -4 28 19 23 28 -8 53 8 62 39
9 30 -35 64 -83 64 -34 1 -35 2 -17 15 11 8 16 15 10 15 -5 0 -16 -6 -24 -13z"/>
<path d="M1260 818 c-12 -22 -12 -22 6 -6 10 10 15 20 12 24 -4 3 -12 -5 -18
-18z"/>
</g>
</svg>
